<?xml version="1.0" encoding="utf-8"?>
<!DOCTYPE svg PUBLIC "-//W3C//DTD SVG 1.0//EN" "http://www.w3.org/TR/2001/REC-SVG-20010904/DTD/svg10.dtd">
<svg version="1.0" xmlns="http://www.w3.org/2000/svg" width="100px" height="100px" viewBox="0 0 100 100">
    <path d="M100,50c0,27.615-22.386,50-50,50C22.386,100,0,77.616,0,50c0-1.465,0.077-2.912,0.2-4.346l19.361-21.539l-6.719-7.564
	c1.783-1.979,3.725-3.811,5.801-5.486l9.42,13.433l-13.661,19.1l7.237,5.668l22.772-25.149L27.505,5.349C34.269,1.936,41.905,0,50,0
	C77.614,0,100,22.386,100,50z M83.93,38.894H64.635H51.479H40.338v11.644h11.141v7.525c0,16.805,3.332,25.908,20.906,25.908
	c2.772,0,5.4-0.18,7.813-0.539l-0.736-10.457c-0.987,0.148-2.439,0.148-4.381,0.148c-7.712,0-10.446-3.941-10.446-15.061v-7.525
	H83.93V38.894z"/>
</svg>
