<?xml version="1.0" encoding="utf-8"?>
<!-- Generator: Adobe Illustrator 15.1.0, SVG Export Plug-In . SVG Version: 6.00 Build 0)  -->
<!DOCTYPE svg PUBLIC "-//W3C//DTD SVG 1.0//EN" "http://www.w3.org/TR/2001/REC-SVG-20010904/DTD/svg10.dtd">
<svg version="1.0" xmlns="http://www.w3.org/2000/svg" xmlns:xlink="http://www.w3.org/1999/xlink" x="0px" y="0px" width="255px"
	 height="255px" viewBox="0 0 255 255" enable-background="new 0 0 255 255" xml:space="preserve">
<g id="Ebene_1">
</g>
<g id="RZ_2">
	<path fill="#00285A" d="M255.002,127.5c0,70.419-57.085,127.501-127.503,127.501C57.084,255,0,197.918,0,127.5
		c0-3.735,0.195-7.426,0.509-11.081L49.88,61.494L32.747,42.205c4.547-5.048,9.499-9.718,14.794-13.989l24.022,34.253
		l-34.835,48.704l18.456,14.456l58.07-64.132L70.138,13.639C87.385,4.935,106.859,0,127.499,0
		C197.917,0,255.002,57.083,255.002,127.5z M214.021,99.178h-49.202h-33.547h-28.409v29.693h28.409v19.19
		c0,42.849,8.497,66.065,53.311,66.065c7.069,0,13.771-0.461,19.924-1.375l-1.878-26.667c-2.518,0.381-6.221,0.381-11.173,0.381
		c-19.666,0-26.637-10.051-26.637-38.404v-19.19h49.202V99.178z"/>
</g>
</svg>
